<svg height="496pt" viewBox="0 0 496 496" width="496pt" xmlns="http://www.w3.org/2000/svg"><path d="m232 296h86.398438c-14.550782 28.480469-44.160157 48-78.398438 48-48.640625 0-88-39.359375-88-88 0-45.921875 35.121094-83.601562 80-87.601562zm0 0" fill="#48cfad"/><path d="m168 352-29.847656 29.839844-24-24 29.847656-29.839844c6.878906 9.121094 14.878906 17.121094 24 24zm0 0" fill="#e6e9ed"/><path d="m324.640625 232c-3.28125-11.921875-9.121094-22.71875-16.71875-32-16.167969-19.519531-40.5625-32-67.921875-32-2.71875 0-5.359375.160156-8 .398438-44.878906 4-80 41.679687-80 87.601562 0 48.640625 39.359375 88 88 88 34.238281 0 63.839844-19.519531 78.398438-48 5.042968-9.761719 8.242187-20.558594 9.203124-32 .238282-2.640625.398438-5.28125.398438-8 0-8.320312-1.121094-16.398438-3.359375-24zm35.359375 24c0 14-2.398438 27.441406-6.878906 40-16.402344 46.558594-60.882813 80-113.121094 80-27.039062 0-52-8.960938-72-24-9.121094-6.878906-17.121094-14.878906-24-24-15.039062-20-24-44.960938-24-72 0-63.519531 49.441406-115.601562 112-119.679688 2.640625-.242187 5.28125-.320312 8-.320312 46 0 86 25.921875 106.152344 64 5.199218 9.921875 9.128906 20.640625 11.449218 32 1.597657 7.761719 2.398438 15.761719 2.398438 24zm0 0" fill="#fcd770"/><path d="m114.152344 357.839844 32 32-26.152344 26.160156-40-40 26.152344-26.160156zm0 0" fill="#fcd770"/><path d="m296 8-64 64v64.320312c2.640625-.242187 5.28125-.320312 8-.320312 46 0 86 25.921875 106.152344 64 5.199218 9.921875 9.128906 20.640625 11.449218 32 1.597657 7.761719 2.398438 15.761719 2.398438 24 0 14-2.398438 27.441406-6.878906 40h134.878906v-288zm0 0" fill="#e6e9ed"/><path d="m120 416-72 72c-11.039062 0-21.039062-4.480469-28.320312-11.679688-7.199219-7.28125-11.679688-17.28125-11.679688-28.320312l72-72zm0 0" fill="#cf9e76"/><path d="m456 40v64h-192v-32h32v-32zm0 0" fill="#ff826e"/><path d="m296 40v32h-64l64-64zm0 0" fill="#48cfad"/><path d="m307.921875 200c7.597656 9.28125 13.4375 20.078125 16.71875 32 2.238281 7.601562 3.359375 15.679688 3.359375 24 0 2.71875-.160156 5.359375-.398438 8-.960937 11.441406-4.167968 22.238281-9.203124 32h-86.398438v-127.601562c2.640625-.238282 5.28125-.398438 8-.398438 27.359375 0 51.761719 12.480469 67.921875 32zm0 0" fill="#e6e9ed"/><g fill="#1e1713"><path d="m240 160c-52.9375 0-96 43.0625-96 96s43.0625 96 96 96 96-43.0625 96-96-43.0625-96-96-96zm47.792969 32h-31.792969v16h47.847656c3.71875 4.9375 6.921875 10.273438 9.425782 16h-57.273438v16h62.382812c1.058594 5.167969 1.617188 10.519531 1.617188 16h-64v16h62.382812c-1.136718 5.566406-2.878906 10.910156-5.109374 16h-73.273438v-112c17.929688 0 34.441406 6 47.792969 16zm-47.792969 144c-44.113281 0-80-35.886719-80-80 0-38.632812 27.527344-70.953125 64-78.382812v126.382812h79.847656c-14.617187 19.382812-37.757812 32-63.847656 32zm0 0"/><path d="m176 256h16c0-13.007812 5.121094-25.183594 14.414062-34.289062l-11.199218-11.429688c-12.390625 12.132812-19.214844 28.375-19.214844 45.71875zm0 0"/><path d="m178.648438 274.28125c1.945312 6.519531 4.910156 12.679688 8.832031 18.292969l13.128906-9.160157c-2.9375-4.207031-5.167969-8.820312-6.609375-13.703124zm0 0"/><path d="m496 0h-203.3125l-68.6875 68.6875v60.425781c-63.039062 7.910157-112 61.734375-112 126.886719 0 26.28125 7.984375 50.71875 21.617188 71.070312l-19.425782 19.425782-8-8-106.191406 106.191406v3.3125c0 26.472656 21.527344 48 48 48h3.3125l106.191406-106.191406-8-8 19.425782-19.425782c20.351562 13.632813 44.789062 21.617188 71.070312 21.617188 53.601562 0 99.542969-33.152344 118.574219-80h137.425781zm-244.6875 64 36.6875-36.6875v36.6875zm20.6875 16h32v-32h144v48h-176zm-227.160156 399.839844c-15.136719-1.488282-27.199219-13.550782-28.6875-28.6875l63.839844-63.839844 28.695312 28.6875zm75.160156-75.152344-28.6875-28.6875 14.878906-14.878906 28.6875 28.6875zm18.191406-34.191406-12.6875-12.6875 17.984375-17.984375c3.925781 4.519531 8.167969 8.761719 12.6875 12.6875zm101.808594-2.496094c-61.761719 0-112-50.238281-112-112s50.238281-112 112-112 112 50.238281 112 112-50.238281 112-112 112zm240-80h-116.214844c1.351563-5.222656 2.414063-10.542969 3.101563-16h97.113281v-16h-96c0-5.433594-.449219-10.742188-1.113281-16h97.113281v-16h-100.214844c-1.417968-5.472656-3.113281-10.832031-5.210937-16h73.425781v-16h-81.320312c-22.175782-38.191406-63.421876-64-110.679688-64v-48h16v32h208v-80h-160v-16h176zm0 0"/><path d="m336 128h128v16h-128zm0 0"/><path d="m352 160h112v16h-112zm0 0"/><path d="m448 192h16v16h-16zm0 0"/></g></svg>